<?xml version="1.0" encoding="utf-8"?>
<!-- Generator: Adobe Illustrator 16.0.0, SVG Export Plug-In . SVG Version: 6.00 Build 0)  -->
<svg version="1.2" baseProfile="tiny" id="Layer_1" xmlns="http://www.w3.org/2000/svg" xmlns:xlink="http://www.w3.org/1999/xlink"
	 x="0px" y="0px" width="62px" height="62px" viewBox="0 0 62 62" xml:space="preserve">
<path id="Union_11" fill="#B09A68" d="M60,61c0-0.553,0.447-1,1-1s1,0.447,1,1s-0.447,1-1,1S60,61.553,60,61z M54,61
	c0-0.553,0.447-1,1-1s1,0.447,1,1s-0.447,1-1,1S54,61.553,54,61z M6,61c0-0.553,0.448-1,1-1s1,0.447,1,1s-0.448,1-1,1S6,61.553,6,61
	z M0,61c0-0.553,0.448-1,1-1s1,0.447,1,1s-0.448,1-1,1S0,61.553,0,61z M60,55c0-0.553,0.447-1,1-1s1,0.447,1,1s-0.447,1-1,1
	S60,55.553,60,55z M0,55c0-0.553,0.448-1,1-1s1,0.447,1,1s-0.448,1-1,1S0,55.553,0,55z M60,7c0-0.552,0.447-1,1-1s1,0.448,1,1
	s-0.447,1-1,1S60,7.553,60,7z M0,7c0-0.552,0.448-1,1-1s1,0.448,1,1S1.552,8,1,8S0,7.553,0,7z M60,1c0-0.552,0.447-1,1-1
	s1,0.448,1,1s-0.447,1-1,1S60,1.553,60,1z M54,1c0-0.552,0.447-1,1-1s1,0.448,1,1s-0.447,1-1,1S54,1.553,54,1z M6,1
	c0-0.552,0.448-1,1-1s1,0.448,1,1S7.552,2,7,2S6,1.553,6,1z M0,1c0-0.552,0.448-1,1-1s1,0.448,1,1S1.552,2,1,2S0,1.553,0,1z"/>
<g id="Group_19" transform="translate(-27 -1823.018)">
	<path id="Path_298" fill="#303034" d="M41.93,1869.519c0,0.276,0.224,0.5,0.5,0.5h31.148c0.066,0,0.133-0.013,0.193-0.039
		c0.059-0.026,0.113-0.063,0.158-0.108l0,0c0,0,0-0.009,0.008-0.012c0.051-0.058,0.086-0.126,0.107-0.199
		c0.006-0.023,0.01-0.047,0.014-0.07c0.006-0.023,0.012-0.048,0.014-0.072c-0.002-0.038-0.01-0.076-0.021-0.112
		c0-0.014,0-0.028,0-0.042l-3.164-9.727c-0.025-0.076-0.066-0.145-0.123-0.2l-17.133-17.136c-0.016-0.029-0.034-0.057-0.056-0.083
		l-3.744-3.744c-0.609-0.608-1.596-0.608-2.206,0l-5.24,5.241c-0.293,0.291-0.458,0.687-0.457,1.1c0,0.413,0.164,0.809,0.457,1.1
		l3.659,3.66c0.016,0.029,0.034,0.056,0.055,0.082l17.111,17.226c0.059,0.061,0.131,0.104,0.213,0.128l6.721,2H42.43
		c-0.276-0.001-0.5,0.224-0.5,0.499C41.93,1869.514,41.93,1869.516,41.93,1869.519z M48.3,1848.174l15.706,15.5l-0.578,2
		L47.164,1849.3L48.3,1848.174z M64.773,1863.032l-15.766-15.564l2.439-2.44l15.625,15.667v2.337H64.773z M67.697,1859.903
		l-15.542-15.583l1.04-1.04l16.235,16.231L67.697,1859.903z M64.947,1864.033h2.627c0.275,0,0.5-0.224,0.5-0.5v-2.688l2.008-0.457
		l2.727,8.38l-8.5-2.532L64.947,1864.033z M42.93,1844.817c0-0.148,0.059-0.29,0.163-0.395l5.24-5.241
		c0.219-0.218,0.572-0.218,0.79,0l3.376,3.376l-6.029,6.03l-3.375-3.376C42.989,1845.108,42.929,1844.966,42.93,1844.817z"/>
</g>
</svg>
