<?xml version="1.0" encoding="utf-8"?>
<!-- Generator: Adobe Illustrator 16.0.0, SVG Export Plug-In . SVG Version: 6.00 Build 0)  -->
<svg version="1.2" baseProfile="tiny" id="Layer_1" xmlns="http://www.w3.org/2000/svg" xmlns:xlink="http://www.w3.org/1999/xlink"
	 x="0px" y="0px" width="62px" height="62px" viewBox="0 0 62 62" xml:space="preserve">
<path id="Union_11" fill="#B09A68" d="M60,61c0-0.553,0.447-1,1-1s1,0.447,1,1s-0.447,1-1,1S60,61.553,60,61z M54,61
	c0-0.553,0.447-1,1-1s1,0.447,1,1s-0.447,1-1,1S54,61.553,54,61z M6,61c0-0.553,0.448-1,1-1s1,0.447,1,1s-0.448,1-1,1S6,61.553,6,61
	z M0,61c0-0.553,0.448-1,1-1s1,0.447,1,1s-0.448,1-1,1S0,61.553,0,61z M60,55c0-0.553,0.447-1,1-1s1,0.447,1,1s-0.447,1-1,1
	S60,55.553,60,55z M0,55c0-0.553,0.448-1,1-1s1,0.447,1,1s-0.448,1-1,1S0,55.553,0,55z M60,7c0-0.552,0.447-1,1-1s1,0.448,1,1
	s-0.447,1-1,1S60,7.553,60,7z M0,7c0-0.552,0.448-1,1-1s1,0.448,1,1S1.552,8,1,8S0,7.553,0,7z M60,1c0-0.552,0.447-1,1-1
	s1,0.448,1,1s-0.447,1-1,1S60,1.553,60,1z M54,1c0-0.552,0.447-1,1-1s1,0.448,1,1s-0.447,1-1,1S54,1.553,54,1z M6,1
	c0-0.552,0.448-1,1-1s1,0.448,1,1S7.552,2,7,2S6,1.553,6,1z M0,1c0-0.552,0.448-1,1-1s1,0.448,1,1S1.552,2,1,2S0,1.553,0,1z"/>
<g id="Group_24" transform="translate(-159 -1615)">
	<path id="Path_169" fill="#303034" d="M210.5,1640c-0.276,0-0.5,0.224-0.5,0.5v20c0,0.276-0.224,0.5-0.5,0.5h-39
		c-0.276,0-0.5-0.224-0.5-0.5v-20c0-0.276-0.224-0.5-0.5-0.5s-0.5,0.224-0.5,0.5v20c0,0.828,0.671,1.5,1.5,1.5h39
		c0.828,0,1.5-0.672,1.5-1.5v-20C211,1640.224,210.776,1640,210.5,1640z"/>
	<path id="Path_170" fill="#303034" d="M209.5,1630h-39c-0.829,0-1.5,0.671-1.5,1.5v6c0,0.276,0.224,0.5,0.5,0.5h41
		c0.276,0,0.5-0.224,0.5-0.5v-6C211,1630.671,210.328,1630,209.5,1630z M210,1637h-40v-5.5c0-0.276,0.224-0.5,0.5-0.5h39
		c0.276,0,0.5,0.224,0.5,0.5V1637z"/>
	<path id="Path_171" fill="#303034" d="M186.5,1658c0.276,0,0.5-0.224,0.5-0.5v-16c0-0.276-0.224-0.5-0.5-0.5h-13
		c-0.276,0-0.5,0.224-0.5,0.5v16c0,0.276,0.224,0.5,0.5,0.5H186.5z M174,1642h12v15h-12V1642z"/>
	<path id="Path_172" fill="#303034" d="M191.5,1645h15c0.276,0,0.5-0.224,0.5-0.5s-0.224-0.5-0.5-0.5h-15
		c-0.276,0-0.5,0.224-0.5,0.5S191.224,1645,191.5,1645z"/>
	<path id="Path_173" fill="#303034" d="M191.5,1650h15c0.276,0,0.5-0.224,0.5-0.5s-0.224-0.5-0.5-0.5h-15
		c-0.276,0-0.5,0.224-0.5,0.5S191.224,1650,191.5,1650z"/>
	<path id="Path_174" fill="#303034" d="M191.5,1655h15c0.276,0,0.5-0.224,0.5-0.5s-0.224-0.5-0.5-0.5h-15
		c-0.276,0-0.5,0.224-0.5,0.5S191.224,1655,191.5,1655z"/>
	<circle id="Ellipse_36" fill="#303034" cx="173" cy="1634" r="1"/>
	<circle id="Ellipse_37" fill="#303034" cx="177" cy="1634" r="1"/>
	<circle id="Ellipse_38" fill="#303034" cx="181" cy="1634" r="1"/>
</g>
</svg>
