<?xml version="1.0" encoding="utf-8"?>
<!-- Generator: Adobe Illustrator 16.0.0, SVG Export Plug-In . SVG Version: 6.00 Build 0)  -->
<svg version="1.2" baseProfile="tiny" id="Layer_1" xmlns="http://www.w3.org/2000/svg" xmlns:xlink="http://www.w3.org/1999/xlink"
	 x="0px" y="0px" width="62px" height="62px" viewBox="0 0 62 62" xml:space="preserve">
<path id="Union_11" fill="#B09A68" d="M60,61c0-0.553,0.447-1,1-1s1,0.447,1,1s-0.447,1-1,1S60,61.553,60,61z M54,61
	c0-0.553,0.447-1,1-1s1,0.447,1,1s-0.447,1-1,1S54,61.553,54,61z M6,61c0-0.553,0.448-1,1-1s1,0.447,1,1s-0.448,1-1,1S6,61.553,6,61
	z M0,61c0-0.553,0.448-1,1-1s1,0.447,1,1s-0.448,1-1,1S0,61.553,0,61z M60,55c0-0.553,0.447-1,1-1s1,0.447,1,1s-0.447,1-1,1
	S60,55.553,60,55z M0,55c0-0.553,0.448-1,1-1s1,0.447,1,1s-0.448,1-1,1S0,55.553,0,55z M60,7c0-0.552,0.447-1,1-1s1,0.448,1,1
	s-0.447,1-1,1S60,7.552,60,7z M0,7c0-0.552,0.448-1,1-1s1,0.448,1,1S1.552,8,1,8S0,7.552,0,7z M60,1c0-0.552,0.447-1,1-1
	s1,0.448,1,1s-0.447,1-1,1S60,1.552,60,1z M54,1c0-0.552,0.447-1,1-1s1,0.448,1,1s-0.447,1-1,1S54,1.552,54,1z M6,1
	c0-0.552,0.448-1,1-1s1,0.448,1,1S7.552,2,7,2S6,1.552,6,1z M0,1c0-0.552,0.448-1,1-1s1,0.448,1,1S1.552,2,1,2S0,1.552,0,1z"/>
<g id="Group_21" transform="translate(-523 -1875)">
	<path id="Path_253" fill="#303034" d="M568,1899.4c0-6.326-4.579-9.4-14-9.4s-14,3.075-14,9.4c0,7.275,13.173,15.668,13.733,16.021
		h0.005c0.012,0.005,0.023,0.009,0.035,0.013c0.14,0.084,0.314,0.084,0.454,0c0.011-0.006,0.024-0.006,0.035-0.013h0.005
		C554.827,1915.068,568,1906.677,568,1899.4z M558,1899.4c0,5.56-2.876,12.122-4,14.473c-1.124-2.352-4-8.909-4-14.473
		c0-7.53,2.283-8.4,4-8.4S558,1891.871,558,1899.4z M549,1899.4c0,4.8,1.979,10.141,3.331,13.236
		c-2.742-2.899-7.331-8.456-7.331-13.236c0-4.69,1.918-7.327,5.977-8.132C549.653,1892.717,549,1895.411,549,1899.4z M559,1899.4
		c0-3.99-0.652-6.684-1.977-8.132c4.06,0.8,5.977,3.442,5.977,8.132c0,4.78-4.589,10.338-7.331,13.236
		C557.021,1909.543,559,1904.2,559,1899.4z M541,1899.4c0-3.971,1.987-6.47,6.156-7.632c-2.114,1.532-3.156,4.065-3.156,7.632
		c0,4.2,3.135,8.792,5.838,11.973C545.98,1908.307,541,1903.544,541,1899.4z M558.162,1911.373c2.699-3.182,5.838-7.77,5.838-11.973
		c0-3.568-1.042-6.1-3.156-7.632c4.17,1.162,6.156,3.661,6.156,7.632C567,1903.544,562.02,1908.307,558.162,1911.373
		L558.162,1911.373z"/>
	<path id="Path_254" fill="#303034" d="M551.5,1917c-0.276,0-0.5,0.224-0.5,0.5v3c-0.009,0.819,0.648,1.491,1.468,1.5
		c0.011,0,0.021,0,0.032,0h3c0.819,0.009,1.491-0.648,1.5-1.468c0-0.011,0-0.021,0-0.032v-3c0-0.276-0.224-0.5-0.5-0.5H551.5z
		 M556,1920.5c0.012,0.264-0.193,0.488-0.457,0.5c-0.014,0-0.029,0-0.043,0h-3c-0.264,0.012-0.488-0.193-0.5-0.457
		c0-0.014,0-0.029,0-0.043v-2.5h4V1920.5z"/>
</g>
</svg>
