<?xml version="1.0" encoding="utf-8"?>
<!-- Generator: Adobe Illustrator 16.0.0, SVG Export Plug-In . SVG Version: 6.00 Build 0)  -->
<svg version="1.2" baseProfile="tiny" id="Layer_1" xmlns="http://www.w3.org/2000/svg" xmlns:xlink="http://www.w3.org/1999/xlink"
	 x="0px" y="0px" width="62px" height="62px" viewBox="0 0 62 62" xml:space="preserve">
<path id="Union_11" fill="#B09A68" d="M60,61c0-0.553,0.447-1,1-1s1,0.447,1,1s-0.447,1-1,1S60,61.553,60,61z M54,61
	c0-0.553,0.447-1,1-1s1,0.447,1,1s-0.447,1-1,1S54,61.553,54,61z M6,61c0-0.553,0.448-1,1-1s1,0.447,1,1s-0.448,1-1,1S6,61.553,6,61
	z M0,61c0-0.553,0.448-1,1-1s1,0.447,1,1s-0.448,1-1,1S0,61.553,0,61z M60,55c0-0.553,0.447-1,1-1s1,0.447,1,1s-0.447,1-1,1
	S60,55.553,60,55z M0,55c0-0.553,0.448-1,1-1s1,0.447,1,1s-0.448,1-1,1S0,55.553,0,55z M60,7c0-0.552,0.447-1,1-1s1,0.448,1,1
	s-0.447,1-1,1S60,7.552,60,7z M0,7c0-0.552,0.448-1,1-1s1,0.448,1,1S1.552,8,1,8S0,7.552,0,7z M60,1c0-0.552,0.447-1,1-1
	s1,0.448,1,1s-0.447,1-1,1S60,1.552,60,1z M54,1c0-0.552,0.447-1,1-1s1,0.448,1,1s-0.447,1-1,1S54,1.552,54,1z M6,1
	c0-0.552,0.448-1,1-1s1,0.448,1,1S7.552,2,7,2S6,1.552,6,1z M0,1c0-0.552,0.448-1,1-1s1,0.448,1,1S1.552,2,1,2S0,1.552,0,1z"/>
<g id="Group_22" transform="translate(-532 -1771)">
	<path id="Path_339" fill="#303034" d="M563,1786c-6.069,0.014-10.986,4.931-11,11c-0.054,3.225,1.386,6.293,3.9,8.313
		c0.027,0.033,0.058,0.063,0.092,0.088c1.9,2.063,2,2.453,2.01,3.361c0.006,0.359,0,0.465,0,0.523v0.209
		c-0.141,0.656,0.253,1.311,0.9,1.494l8.094,1.781c0.27,0.059,0.535-0.111,0.596-0.381c0.059-0.271-0.111-0.537-0.383-0.596
		l-8.055-1.771c-0.154-0.047-0.168-0.051-0.153-0.5v-0.191c0,0,0.011-0.078,0-0.586c-0.019-1.27-0.3-1.883-2.309-4.059
		c-0.038-0.047-0.085-0.088-0.138-0.119c-2.283-1.842-3.593-4.632-3.554-7.566c0.012-5.518,4.482-9.988,10-10
		c5.467-0.056,9.944,4.332,10,9.799c0,0.067,0,0.134,0,0.201c0.066,2.928-1.234,5.719-3.518,7.551
		c-0.057,0.027-0.105,0.064-0.148,0.109c-2.037,2.199-2.313,2.816-2.332,4.086c0,0.029,0,0.064,0,0.1v0.035
		c0,0.076-0.014,0.119-0.012,0.135l-0.117-0.018l-4.201-0.988c-0.269-0.063-0.538,0.104-0.602,0.373s0.104,0.539,0.372,0.602
		l4.145,0.973c0.324,0.111,0.682,0.07,0.973-0.113c0.271-0.207,0.432-0.525,0.434-0.867v-0.047c0-0.031,0-0.064,0-0.1
		c0.002-0.008,0.002-0.018,0-0.025v-0.047c0.014-0.9,0.107-1.293,2.006-3.355c0.01-0.008,0.018-0.014,0.027-0.021
		c2.564-2.018,4.035-5.119,3.973-8.381c0.059-6.016-4.771-10.941-10.788-11C563.142,1786,563.07,1786,563,1786z"/>
	<path id="Path_340" fill="#303034" d="M567,1815.5c0.275,0,0.5-0.223,0.5-0.498c0.002-0.234-0.162-0.439-0.391-0.49l-8-1.813
		c-0.268-0.068-0.539,0.094-0.605,0.363c-0.068,0.268,0.096,0.539,0.363,0.605c0.007,0.002,0.014,0.004,0.021,0.006l8,1.813
		C566.926,1815.496,566.963,1815.5,567,1815.5z"/>
	<path id="Path_341" fill="#303034" d="M559.609,1815.555c-0.268-0.07-0.541,0.088-0.611,0.355s0.088,0.541,0.355,0.611
		c0.012,0.002,0.024,0.006,0.037,0.008l6.5,1.457c0.035,0.01,0.072,0.014,0.109,0.014c0.275,0,0.5-0.223,0.5-0.5
		c0-0.234-0.162-0.438-0.391-0.488L559.609,1815.555z"/>
</g>
</svg>
