<?xml version="1.0" encoding="utf-8"?>
<!-- Generator: Adobe Illustrator 16.0.0, SVG Export Plug-In . SVG Version: 6.00 Build 0)  -->
<svg version="1.2" baseProfile="tiny" id="Layer_1" xmlns="http://www.w3.org/2000/svg" xmlns:xlink="http://www.w3.org/1999/xlink"
	 x="0px" y="0px" width="62px" height="62px" viewBox="0 0 62 62" xml:space="preserve">
<path id="Union_11" fill="#B09A68" d="M60,61c0-0.553,0.447-1,1-1s1,0.447,1,1s-0.447,1-1,1S60,61.553,60,61z M54,61
	c0-0.553,0.447-1,1-1s1,0.447,1,1s-0.447,1-1,1S54,61.553,54,61z M6,61c0-0.553,0.448-1,1-1s1,0.447,1,1s-0.448,1-1,1S6,61.553,6,61
	z M0,61c0-0.553,0.448-1,1-1s1,0.447,1,1s-0.448,1-1,1S0,61.553,0,61z M60,55c0-0.553,0.447-1,1-1s1,0.447,1,1s-0.447,1-1,1
	S60,55.553,60,55z M0,55c0-0.553,0.448-1,1-1s1,0.447,1,1s-0.448,1-1,1S0,55.553,0,55z M60,7c0-0.552,0.447-1,1-1s1,0.448,1,1
	s-0.447,1-1,1S60,7.553,60,7z M0,7c0-0.552,0.448-1,1-1s1,0.448,1,1S1.552,8,1,8S0,7.553,0,7z M60,1c0-0.552,0.447-1,1-1
	s1,0.448,1,1s-0.447,1-1,1S60,1.553,60,1z M54,1c0-0.552,0.447-1,1-1s1,0.448,1,1s-0.447,1-1,1S54,1.553,54,1z M6,1
	c0-0.552,0.448-1,1-1s1,0.448,1,1S7.552,2,7,2S6,1.553,6,1z M0,1c0-0.552,0.448-1,1-1s1,0.448,1,1S1.552,2,1,2S0,1.553,0,1z"/>
<g id="Group_20" transform="translate(-585.576 -1823)">
	<path id="Path_299" fill="#303034" d="M626.794,1869.51c0-0.276-0.224-0.5-0.5-0.5h-18c-0.276,0-0.5,0.224-0.5,0.5
		s0.224,0.5,0.5,0.5h18C626.57,1870.01,626.794,1869.786,626.794,1869.51z"/>
	<path id="Path_300" fill="#303034" d="M606.068,1847.364c-0.732,0.541-0.928,1.551-0.451,2.326
		c0.538,1.145,1.481,2.049,2.647,2.539c0.539,0.167,1.124,0.095,1.605-0.2c1.1-0.658,2.4-1.548,2.947-1.93
		c0.769,0.361,1.643,0.432,2.46,0.2h0.012c-0.052,1.651-0.611,2.682-3.344,5.22c-2.318,2.011-3.715,4.882-3.867,7.946
		c-0.037,1.674,0.648,3.283,1.88,4.419c0.092,0.083,0.212,0.13,0.336,0.13h14c0.276,0,0.5-0.224,0.5-0.5c0-0.275-0.224-0.5-0.5-0.5
		h-13.799c-0.935-0.943-1.446-2.227-1.415-3.555c0.169-2.781,1.447-5.377,3.547-7.208c2.915-2.706,3.669-3.988,3.669-6.237
		c-0.003-0.039-0.011-0.078-0.023-0.115c0.533-0.274,0.994-0.671,1.344-1.157c0.4-0.59,1.277-2.105,0.63-3.446
		c-0.12-0.249-0.419-0.353-0.668-0.232c-0.249,0.12-0.353,0.419-0.231,0.668c0.243,0.856,0.034,1.777-0.555,2.445
		c-0.434,0.58-1.057,0.989-1.761,1.157c-0.654,0.204-1.364,0.119-1.952-0.232c-0.171-0.119-0.399-0.119-0.571,0
		c-0.018,0.012-1.777,1.251-3.149,2.074c-0.244,0.15-0.541,0.184-0.813,0.094c-0.895-0.415-1.614-1.132-2.032-2.026
		c-0.329-0.658,0.008-0.972,0.161-1.084c2.073-1.769,3.846-3.863,5.248-6.2c0.067-0.123,0.081-0.268,0.037-0.4
		c-0.216-0.667-0.396-1.346-0.54-2.033c1.416,0.904,3.041,1.424,4.719,1.51c2.6,0,8.657,0.972,8.657,9.976
		c-0.111,3.524-0.776,7.009-1.97,10.327c-0.094,0.26,0.039,0.547,0.299,0.641h0.001c0.055,0.021,0.112,0.031,0.171,0.03
		c0.211,0,0.398-0.132,0.471-0.329c1.242-3.426,1.926-7.029,2.026-10.672c0-10.183-7.393-10.974-9.657-10.974
		c-1.826-0.158-3.571-0.824-5.037-1.923c-0.151-0.115-0.355-0.135-0.526-0.052c-0.171,0.084-0.279,0.258-0.279,0.448
		c0.087,1.071,0.304,2.128,0.646,3.147C609.613,1843.792,607.97,1845.717,606.068,1847.364z"/>
	<path id="Path_301" fill="#303034" d="M622.279,1839.55c-1.783-1.13-3.878-1.669-5.985-1.54c-0.276,0-0.5,0.224-0.5,0.5
		s0.224,0.5,0.5,0.5c1.908-0.125,3.807,0.354,5.427,1.369c2.314,1.562,5.073,4.674,5.073,10.631
		c0.018,2.494-0.313,4.978-0.985,7.379c-0.066,0.268,0.097,0.539,0.365,0.605c0.039,0.01,0.08,0.016,0.12,0.016
		c0.229,0,0.43-0.156,0.485-0.379c0.691-2.48,1.033-5.046,1.015-7.621C627.794,1844.61,624.794,1841.247,622.279,1839.55z"/>
</g>
</svg>
